<svg xmlns="http://www.w3.org/2000/svg" width="282" height="64" viewBox="0 0 282 64" role="img" aria-label="Download for Apple Silicon macOS">
  <rect x="1" y="1" width="280" height="62" rx="14" fill="#000000" stroke="#3a3a3a" stroke-width="1.5"/>
  <g transform="translate(22,14) scale(1.6)" fill="#ffffff"><path d="M12.152 6.896c-.948 0-2.415-1.078-3.96-1.04-2.04.027-3.91 1.183-4.961 3.014-2.117 3.675-.546 9.103 1.519 12.09 1.013 1.454 2.208 3.09 3.792 3.039 1.52-.065 2.09-.987 3.935-.987 1.831 0 2.35.987 3.96.948 1.637-.026 2.676-1.48 3.676-2.948 1.156-1.688 1.636-3.325 1.662-3.415-.039-.013-3.182-1.221-3.22-4.857-.026-3.04 2.48-4.494 2.597-4.559-1.429-2.09-3.623-2.324-4.39-2.376-2-.156-3.675 1.09-4.61 1.09zM15.53 3.83c.843-1.012 1.4-2.427 1.245-3.83-1.207.052-2.662.805-3.532 1.818-.78.896-1.454 2.338-1.273 3.714 1.338.104 2.715-.688 3.559-1.701"/></g>
  <g fill="#ffffff" font-family="-apple-system,BlinkMacSystemFont,'Segoe UI',Helvetica,Arial,sans-serif">
    <text x="78" y="27" font-size="12" fill-opacity="0.8">Download for Apple Silicon</text>
    <text x="77" y="49" font-size="21" font-weight="700">macOS</text>
  </g>
</svg>
